<?xml version="1.0" standalone="no"?>
<!DOCTYPE svg PUBLIC "-//W3C//DTD SVG 20010904//EN"
 "http://www.w3.org/TR/2001/REC-SVG-20010904/DTD/svg10.dtd">
<svg version="1.0" xmlns="http://www.w3.org/2000/svg"
 width="343.000000pt" height="147.000000pt" viewBox="0 0 343.000000 147.000000"
 preserveAspectRatio="xMidYMid meet">

<g transform="translate(0.000000,147.000000) scale(0.100000,-0.100000)"
fill="#000000" stroke="none">
<path d="M2297 1160 c-15 -12 -31 -38 -37 -58 -6 -21 -10 -157 -10 -319 l0
-283 -159 0 c-179 0 -180 0 -161 -72 14 -50 71 -114 117 -129 88 -29 198 15
234 94 17 39 19 69 19 373 l0 331 23 21 c13 12 30 22 38 22 23 0 59 -29 59
-49 0 -23 19 -41 36 -34 28 11 11 72 -30 105 -30 25 -97 23 -129 -2z m-52
-732 c-11 -36 -56 -77 -94 -88 -67 -18 -158 28 -174 90 -5 19 -1 20 135 20
l139 0 -6 -22z"/>
<path d="M1732 904 c-13 -9 -24 -30 -28 -55 -5 -29 -11 -39 -25 -39 -25 0 -24
-20 1 -27 18 -5 20 -14 20 -88 0 -61 4 -86 15 -95 12 -10 18 -10 30 0 11 9 15
34 15 96 0 77 1 83 22 86 32 5 35 28 3 28 -24 0 -26 3 -23 33 2 27 8 33 31 35
33 4 36 27 5 36 -34 9 -41 8 -66 -10z"/>
<path d="M334 897 c-2 -7 -3 -78 -2 -157 l3 -145 79 -3 c93 -3 131 9 152 49
18 36 10 73 -23 99 l-24 19 20 20 c31 31 28 84 -5 110 -22 18 -41 21 -111 21
-59 0 -85 -4 -89 -13z m159 -48 c31 -43 -10 -84 -77 -77 -29 3 -31 6 -34 51
l-3 47 50 0 c39 0 53 -4 64 -21z m14 -135 c18 -25 16 -41 -8 -65 -16 -16 -30
-19 -67 -17 -47 3 -47 3 -50 42 -5 62 1 69 60 64 34 -4 56 -12 65 -24z"/>
<path d="M1570 891 c0 -25 30 -36 48 -17 19 18 7 36 -24 36 -17 0 -24 -6 -24
-19z"/>
<path d="M2116 895 c-3 -9 -6 -76 -6 -150 0 -106 3 -135 15 -145 12 -10 18
-10 30 0 13 11 15 38 13 159 -3 140 -4 146 -24 149 -13 2 -24 -4 -28 -13z"/>
<path d="M1430 866 c0 -37 -10 -56 -31 -56 -25 0 -24 -20 1 -27 18 -5 20 -14
20 -77 0 -88 16 -116 64 -116 33 0 62 20 49 33 -3 4 -17 7 -29 7 -26 0 -38 37
-32 105 2 32 7 40 27 45 35 8 37 28 4 32 -24 3 -28 8 -31 41 -3 29 -7 37 -23
37 -13 0 -19 -7 -19 -24z"/>
<path d="M695 811 c-80 -33 -94 -158 -22 -201 39 -24 104 -26 135 -4 27 19 31
50 5 38 -10 -4 -35 -9 -56 -12 -42 -5 -77 17 -77 50 0 16 9 18 80 18 79 0 80
0 80 26 0 38 -18 64 -55 80 -38 16 -60 17 -90 5z m89 -53 c9 -12 16 -26 16
-30 0 -5 -27 -8 -60 -8 -64 0 -73 9 -43 42 23 25 68 23 87 -4z"/>
<path d="M928 809 c-27 -11 -43 -35 -28 -44 4 -3 20 -1 35 5 41 16 73 12 85
-9 15 -28 13 -31 -17 -31 -47 0 -102 -20 -113 -40 -17 -31 -12 -68 12 -84 28
-20 77 -20 105 -1 19 13 22 13 27 0 7 -20 32 -19 40 1 10 27 7 142 -5 168 -19
40 -83 56 -141 35z m102 -118 c0 -28 -22 -61 -45 -67 -49 -12 -78 47 -32 66
30 12 77 12 77 1z"/>
<path d="M2414 805 c-80 -41 -77 -175 4 -206 15 -6 47 -9 72 -6 48 5 85 37 96
83 9 37 -13 101 -41 120 -36 23 -95 27 -131 9z m100 -47 c23 -32 20 -90 -4
-116 -27 -28 -45 -28 -75 3 -47 46 -24 135 35 135 18 0 34 -8 44 -22z"/>
<path d="M2986 804 c-22 -12 -30 -13 -36 -4 -4 7 -16 10 -26 8 -18 -3 -19 -14
-19 -148 0 -143 0 -145 23 -148 21 -3 22 0 22 52 0 60 4 64 34 41 24 -18 75
-19 97 -2 45 35 55 138 17 181 -29 33 -74 41 -112 20z m68 -46 c30 -43 15
-124 -24 -128 -38 -5 -52 2 -66 35 -14 35 -11 78 9 103 16 20 64 14 81 -10z"/>
<path d="M1140 721 c0 -78 3 -94 20 -111 23 -23 77 -27 105 -6 17 12 21 12 31
-2 6 -9 18 -13 28 -9 13 5 16 23 16 112 0 105 0 106 -22 103 -21 -3 -23 -9
-28 -81 -4 -63 -9 -82 -24 -93 -23 -16 -35 -17 -56 -4 -11 6 -16 33 -20 92 -5
77 -7 83 -27 86 -22 3 -23 1 -23 -87z"/>
<path d="M1574 797 c-3 -8 -3 -56 -2 -108 3 -86 5 -94 23 -94 19 0 20 8 23
108 3 102 2 107 -18 107 -11 0 -23 -6 -26 -13z"/>
<path d="M1850 721 c0 -78 3 -94 20 -111 23 -23 77 -27 105 -6 17 12 21 12 31
-2 6 -9 18 -13 28 -9 13 5 16 23 16 112 0 105 0 106 -22 103 -21 -3 -23 -9
-26 -78 -2 -62 -6 -78 -23 -92 -24 -20 -37 -22 -59 -8 -11 6 -16 33 -20 92 -5
77 -7 83 -27 86 -22 3 -23 1 -23 -87z"/>
<path d="M2640 721 c0 -78 3 -94 20 -111 23 -23 77 -27 105 -6 17 12 21 12 31
-2 6 -9 18 -13 28 -9 13 5 16 23 16 112 0 105 0 106 -22 103 -21 -3 -23 -9
-28 -81 -4 -63 -9 -82 -24 -93 -23 -16 -35 -17 -56 -4 -11 6 -16 33 -20 92 -5
77 -7 83 -27 86 -22 3 -23 1 -23 -87z"/>
</g>
</svg>
